/* XPM */
static char *ee90e96bd94f4ec7d4e7bfc99024df67b9gvyJjnA5wFnrP7[] = {
/* columns rows colors chars-per-pixel */
"55 64 160 2 ",
"   c None",
".  c #000000",
"X  c #0B0402",
"o  c #0D0802",
"O  c #060B0B",
"+  c #0C0C0C",
"@  c #130000",
"#  c #1C0000",
"$  c #130C04",
"%  c #120B0B",
"&  c #1E0808",
"*  c #1C1305",
"=  c #0E1111",
"-  c #131313",
";  c #1E1E1E",
":  c #250707",
">  c #2D0101",
",  c #2D0A0A",
"<  c #330101",
"1  c #3B0000",
"2  c #211606",
"3  c #261907",
"4  c #2B1C08",
"5  c #2A1717",
"6  c #201E1E",
"7  c #332109",
"8  c #39250B",
"9  c #3F2A0C",
"0  c #232424",
"q  c #282424",
"w  c #272929",
"e  c #2C2C2C",
"r  c #3E2A20",
"t  c #322A2A",
"y  c #382F2F",
"u  c #36342E",
"i  c #3E3529",
"p  c #2D3433",
"a  c #323333",
"s  c #3B3131",
"d  c #410000",
"f  c #4B0000",
"g  c #540000",
"h  c #5A0000",
"j  c #500A0A",
"k  c #5E0808",
"l  c #4C1D08",
"z  c #4E1F1F",
"x  c #541010",
"c  c #610000",
"v  c #690000",
"b  c #720000",
"n  c #7B0000",
"m  c #710909",
"M  c #7A0E0E",
"N  c #651503",
"B  c #7F1D1D",
"V  c #432C0D",
"C  c #482F0D",
"Z  c #4D320E",
"A  c #5E3907",
"S  c #51350F",
"D  c #57390D",
"F  c #5C3A08",
"G  c #533610",
"H  c #563911",
"J  c #5C3C11",
"K  c #7F2D06",
"L  c #7C2D09",
"P  c #66330D",
"I  c #613F12",
"U  c #462727",
"Y  c #452B2B",
"T  c #4C2C2C",
"R  c #512C2C",
"E  c #5B2A2A",
"W  c #652626",
"Q  c #6A2525",
"!  c #612924",
"~  c #752121",
"^  c #7A2121",
"/  c #654313",
"(  c #6B4614",
")  c #724B15",
"_  c #810404",
"`  c #8B0000",
"'  c #890A0A",
"]  c #960000",
"[  c #990000",
"{  c #871E1E",
"}  c #8B1D1D",
"|  c #931B1B",
" . c #9B1919",
".. c #A40000",
"X. c #A90000",
"o. c #A70A0A",
"O. c #AA0808",
"+. c #B40000",
"@. c #BB0101",
"#. c #B30A0A",
"$. c #B9130F",
"%. c #AB1515",
"&. c #B51313",
"*. c #BE1010",
"=. c #84201D",
"-. c #812020",
";. c #C20000",
":. c #CA0101",
">. c #C60E0E",
",. c #CC0E0E",
"<. c #D70606",
"1. c #D40000",
"2. c #DC0000",
"3. c #DD0606",
"4. c #D10B0B",
"5. c #D00C0C",
"6. c #D40A0A",
"7. c #DB0909",
"8. c #DD0808",
"9. c #C41503",
"0. c #C01010",
"q. c #C51010",
"w. c #E00000",
"e. c #E30000",
"r. c #E40000",
"t. c #E70000",
"y. c #E70606",
"u. c #E60606",
"i. c #EA0000",
"p. c #EB0000",
"a. c #EB0303",
"s. c #EF0000",
"d. c #EB0505",
"f. c #EE0404",
"g. c #EB0505",
"h. c #F30000",
"j. c #F00303",
"k. c #F20303",
"l. c #F30303",
"z. c #F40000",
"x. c #F50000",
"c. c #F70000",
"v. c #F60202",
"b. c #F70202",
"n. c #F50100",
"m. c #F80000",
"M. c #F90000",
"N. c #F90101",
"B. c #FA0000",
"V. c #FB0000",
"C. c #FA0101",
"Z. c #FB0101",
"A. c #F80202",
"S. c #FC0000",
"D. c #FD0000",
"F. c #FC0101",
"G. c #FD0101",
"H. c #FE0000",
"J. c red",
"K. c #FF0000",
/* pixels */
"                                                                                                              ",
"                                                                                                              ",
"                                                                                                              ",
"                                                                                                              ",
"                                                                                                              ",
"                                                                                                              ",
"                                                                                                              ",
"                                            . . . . . . . . . . . . .                                         ",
"                                            1 1 1 1 1 1 1 1 1 1 1 1 1                                         ",
"                                        . # 2.l.j.l.j.l.j.l.j.l.j.l.a.1 .                                     ",
"                                        # 1 e.H.H.H.H.H.H.H.H.H.H.H.A.g #                                     ",
"                                    . 1 1.2.A.H.H.H.H.H.H.H.H.H.H.H.H.r.2.c . .                               ",
"                                    . d A.H.H.H.H.H.H.H.G.H.H.H.H.H.H.H.H.v . .                               ",
"                                . h @.:.H.H.H.H.H.H.H.H.G.G.H.H.H.H.H.H.H.2.@.n . .                           ",
"                              . . v H.H.H.H.H.H.H.H.H.H.G.G.G.G.H.H.H.H.H.H.H.[ . .                           ",
"              . . .           . . v H.H.H.H.H.H.%.} 4.H.G.G.G.G.H.H.H.H.H.*.| x . .                           ",
"              . . . .         . . v H.H.H.H.H.A.W p %.G.G.G.G.G.H.H.H.H.H.-.p ; . .                           ",
"              . X 3 3         . . v H.H.H.H.H.A.W p -.&.&.&.&.&.*.v.H.q.&.W a 6 . .                           ",
"              . * / I o .     . . v H.H.H.H.H.A.W a a a a a a a T y.A.W a a a 6 . .         . . . . .         ",
"              . * G Z * $     . . v H.H.H.H.H.A.W a a a a a a a R d.A.~ a a a ; . .         $ $ X . .         ",
"                  . $ J / * . . . v H.H.H.H.H.A.W a a a a         H.H.    a a 6 . .     . . S ( 4 . .         ",
"                  . o H J 2 X . . v H.H.H.H.H.A.W a a a a         H.H.    a a 0 . .     . o Z / 4 . .         ",
"                      $ $ C J 3 . v H.H.H.H.H.A.W a a a a         H.H.    a a ; . . . o S J 2 $ o             ",
"                      . . S ( 4 . v H.H.H.H.H.A.Q a a a a         H.H.    a s 6 . . . o J / * .               ",
"                          * 2 8 Z l f n A.H.H.H.5.0.Q a a a a a R k.A.~ p | q.m . $ C C 3 *                   ",
"                          . . V ) 9 . 1 A.H.H.H.H.H.{ p a a a p T y.A.W p %.G.[ . * ( I o .                   ",
"                          . . * 8 * . # b ` j.H.H.H.q. . . . . .%.k.G.&. .' n f . o 7 7 X                     ",
"                          . . . . . . . . # r.H.H.H.H.H.H.H.H.H.G.G.H.H.G.v . . . . . .                       ",
"                          + - O . . . . . @ ] X.p.H.H.H.H.H.H.H.H.H.G.@.X.j = - - + . .                       ",
"                      . . w a - . . . . . . . X ;.H.H.H.H.H.H.H.H.H.Z.d . 6 a a a 0 . .                       ",
"                      > < z E 5 O + O O O % > < X.1.1.1.1.1.1.1.1.1.:.1 O 0 a Y E z > >                       ",
"                  . # 1.a.j.k.B e t a e t Y <.r.f X @ X @ X @ X X @ @ 0 a a p -.l.j.a.1.# .                   ",
"                  @ < r.H.H.H.{ a a e a a T 8.a.f X X @ @ @ @ . . O O 0 t a a { H.H.H.r.< X                   ",
"              . 1 :.1.A.H.H.H.{ a 0 O - a s R E #.1.1.1.:.1.o.t w w w = O 0 a { H.H.H.A.2.:.1 .               ",
"              . 1 A.H.H.H.H.H.{ a ; . + a a a s ,.H.H.H.H.H.5.s s a a + . ; p { H.H.H.H.H.A.d .               ",
"              . & ~ ~ ^ ~ k g , - O . + p Y %.*.g.H.H.H.H.H.g.*.%.Y a = . O - , g _ A.H.H.l.d .               ",
"              . + p p p p O . . . . . + a T u.H.H.H.H.H.H.H.H.H.d.T a + . . . . . 1 l.H.H.l.d .               ",
"              . : | | | | _ n 1 . . . + p T u.H.H.H.H.H.H.H.H.H.u.T a + . . . < n [ H.H.H.l.d .               ",
"              . d A.H.H.H.H.H.v . . . + a T u.H.H.H.H.H.H.H.H.H.u.T p + . . . v H.H.H.H.H.l.1 .               ",
"              . d l.H.H.H.H.H.v . . . + a T u.H.H.H.H.H.H.H.H.H.u.T a + . . . v H.H.H.H.H.A.d .               ",
"              . d A.H.H.H.H.H.v . . . = p T u.H.H.H.H.H.H.H.H.H.y.T p + . . . v H.H.H.H.H.A.d .               ",
"              . 1 :.2.1.2.1.2.c . . . % T Q d.H.H.G.g.8.g.H.H.G.d.W T % . . . c 1.1.2.1.1.1.1 .               ",
"                  # @ @ @ @ @       . 1 u.l.H.H.G.G.| i | G.G.G.H.k.u.1 .       # @ @ @ @ @                   ",
"                  . . . . . .       . d a.A.l.l.v.v.=.p =.A.A.v.v.l.g.d .       . . . . . .                   ",
"                              . . - w r K K K K =.K / D P K K =.L ! E t w - . .                               ",
"                              . . - a i A F F F F F A A A F F A D u a a s - . .                               ",
"                            . b ..O.&.$.9.9.9.9.9.9.N * N 9.9.9.9.&.&.&.&.O...b .                             ",
"                          . . [ H.H.H.H.H.H.H.H.G.G.v . v G.H.H.H.H.H.H.G.H.H.[ . .                           ",
"                          . . ] H.H.H.H.H.H.H.H.X.` f . f ` X.A.H.H.H.H.H.H.H.] . .                           ",
"                      . . . . [ H.H.H.H.H.H.H.A.1 .       . 1 H.H.H.H.H.H.H.H.] . . . .                       ",
"                      % + + + M ,.>.>.,.>.>.@.+.1 .       . 1 +.@.>.,.>.>.>.,.M + + + %                       ",
"              . . . O w a a a a s a a a s e o .               . + t a s s a s a a a a w O . . .               ",
"              O O O % U R R T R R R T R R U X .               . O e a T R R R T T R R U % O X O               ",
"        . . - e e p U 6.d.d.d.d.g.a.g.g.d.:.# .               . . t s *.g.a.d.d.g.g.d.6.U e e p - . .         ",
"        . . - t t a U 3.l.l.l.l.j.l.l.j.A.1.: .               . O e a >.A.l.l.l.l.j.l.3.U a a a - . .         ",
"        . . O + + O % 1 1 1 1 1 1 1 1 1 1 1 . .               . . O + < 1 1 1 1 1 1 1 1 % + O + O . .         ",
"        . . . . . . . . . . . . . . . . . . . .               . . . . . . . . . . . . . . . . . . . .         ",
"                                                                                                              ",
"                                                                                                              ",
"                                                                                                              ",
"                                                                                                              ",
"                                                                                                              ",
"                                                                                                              ",
"                                                                                                              "
};
