/* XPM */
static char *f5f32736d2864776c88fcf7c176d4124DQ82CEuHZ6cP7ifM[] = {
/* columns rows colors chars-per-pixel */
"64 64 4 1 ",
"  c None",
". c black",
"X c #301D03",
"o c #724302",
/* pixels */
"                                                                ",
"                                                                ",
"                                                                ",
"                                                                ",
"                                                                ",
"                                                                ",
"                                                                ",
"                                                                ",
"                                                                ",
"                                                                ",
"                                                                ",
"                                                                ",
"                                                                ",
"                                                                ",
"                                                                ",
"                                                                ",
"XXXXXXXXXXXXXXXX................................XXXXXXXXXXXXXXXX",
"XooooooXoooooooX................................XoooooooXooooooX",
"XooooooXoooooooX................................XoooooooXooooooX",
"XooooooXoooooooX................................XoooooooXooooooX",
"XooooooXoooooooX................................XoooooooXooooooX",
"XooooooXoooooooX................................XoooooooXooooooX",
"XooooooXoooooooX................................XoooooooXooooooX",
"XooooooXoooooooX................................XoooooooXooooooX",
"XooooooXoooooooX................................XoooooooXooooooX",
"XooooooXoooooooX................................XoooooooXooooooX",
"XooooooXoooooooX................................XoooooooXooooooX",
"XooooooXoooooooX................................XoooooooXooooooX",
"XooooooXoooooooX................................XoooooooXooooooX",
"XooooooXoooooooX................................XoooooooXooooooX",
"XooooooXoooooooX................................XoooooooXooooooX",
"XooooooXoooooooX................................XoooooooXooooooX",
"XooooooXoooooooX................................XoooooooXooooooX",
"XooooooXoooooooX................................XoooooooXooooooX",
"XooooooXoooooooX................................XoooooooXooooooX",
"XooooooXoooooooX................................XoooooooXooooooX",
"XooooooXoooooooX................................XoooooooXooooooX",
"XooooooXoooooooX................................XoooooooXooooooX",
"XooooooXoooooooX................................XoooooooXooooooX",
"XooooooXoooooooX................................XoooooooXooooooX",
"XooooooXoooooooX................................XoooooooXooooooX",
"XooooooXoooooooX................................XoooooooXooooooX",
"XooooooXoooooooX................................XoooooooXooooooX",
"XooooooXoooooooX................................XoooooooXooooooX",
"XooooooXoooooooX................................XoooooooXooooooX",
"XooooooXoooooooX................................XoooooooXooooooX",
"XooooooXoooooooX................................XoooooooXooooooX",
"XXXXXXXXXXXXXXXX................................XXXXXXXXXXXXXXXX",
"                                                                ",
"                                                                ",
"                                                                ",
"                                                                ",
"                                                                ",
"                                                                ",
"                                                                ",
"                                                                ",
"                                                                ",
"                                                                ",
"                                                                ",
"                                                                ",
"                                                                ",
"                                                                ",
"                                                                ",
"                                                                "
};
