/* XPM */
static char *_a692aa26bc74ac1e50456d9bf15c9e2oRLzZIm2oYFiNyAk[] = {
/* columns rows colors chars-per-pixel */
"64 64 5 1 ",
"  c None",
". c black",
"X c #301D03",
"o c #724302",
"O c #FFE300",
/* pixels */
"                                                                ",
"                                                                ",
"                                                                ",
"                                                                ",
"                                                                ",
"                                                                ",
"                                                                ",
"                                                                ",
"                                                                ",
"                                                                ",
"                                                                ",
"                                                                ",
"                                                                ",
"                                                                ",
"                                                                ",
"                                                                ",
"                XXXXXXXXXXXXXXXXXXXXXXXXXXXXXXXX                ",
"                XoooooooXooooooXXooooooXoooooooX                ",
"                XoooooooXooooooXXooooooXoooooooX                ",
"                XoooooooXooooooXXooooooXoooooooX                ",
"                XoooooooXooooooXXooooooXoooooooX                ",
"                XoooooooXooooooXXooooooXoooooooX                ",
"                XoooooooXooooooXXooooooXoooooooX                ",
"                XoooooooXooooooXXooooooXoooooooX                ",
"                XoooooooXooooooXXooooooXoooooooX                ",
"                XoooooooXooooooXXooooooXoooooooX                ",
"                XoooooooXooooooXXooooooXoooooooX                ",
"                XoooooooXooooooXXooooooXoooooooX                ",
"                XoooooooXooooooXXooooooXoooooooX                ",
"                XoooooooXooooooXXooooooXoooooooX                ",
"                XoooooooXoooo..XX..ooooXoooooooX                ",
"                XoooooooXoooo.OXXO.ooooXoooooooX                ",
"                XoooooooXoooo.OXXO.ooooXoooooooX                ",
"                XoooooooXoooo..XX..ooooXoooooooX                ",
"                XoooooooXooooooXXooooooXoooooooX                ",
"                XoooooooXooooooXXooooooXoooooooX                ",
"                XoooooooXooooooXXooooooXoooooooX                ",
"                XoooooooXooooooXXooooooXoooooooX                ",
"                XoooooooXooooooXXooooooXoooooooX                ",
"                XoooooooXooooooXXooooooXoooooooX                ",
"                XoooooooXooooooXXooooooXoooooooX                ",
"                XoooooooXooooooXXooooooXoooooooX                ",
"                XoooooooXooooooXXooooooXoooooooX                ",
"                XoooooooXooooooXXooooooXoooooooX                ",
"                XoooooooXooooooXXooooooXoooooooX                ",
"                XoooooooXooooooXXooooooXoooooooX                ",
"                XoooooooXooooooXXooooooXoooooooX                ",
"                XXXXXXXXXXXXXXXXXXXXXXXXXXXXXXXX                ",
"                                                                ",
"                                                                ",
"                                                                ",
"                                                                ",
"                                                                ",
"                                                                ",
"                                                                ",
"                                                                ",
"                                                                ",
"                                                                ",
"                                                                ",
"                                                                ",
"                                                                ",
"                                                                ",
"                                                                ",
"                                                                "
};
