/* XPM */
static char *bc813bd2a37f4ebcd00d95c872ef244drGiDB2PBjWKJQ74O[] = {
/* columns rows colors chars-per-pixel */
"64 64 7 1 ",
"  c None",
". c black",
"X c #000100",
"o c #000400",
"O c #010B01",
"+ c #041902",
"@ c #4FCC3A",
/* pixels */
"                                                                ",
"                                                                ",
"                                                                ",
"                                                                ",
"                                                                ",
"                                                                ",
"                                                                ",
"                                                                ",
"                                                                ",
"                                                                ",
"                                                                ",
"                                                                ",
"                                                                ",
"                                                                ",
"                                                                ",
"                                                                ",
"                                                                ",
"                                                                ",
"                                                                ",
"                      XXXXXXXXXXXXXXXXXXXX                      ",
"                     X@@@@@@@@@@@@@@@@@@@@X                     ",
"                    o@@@@@@@@@@@@@@@@@@@@@@X                    ",
"                   X@@@@@@@@@@@@@@@@@@@@@@@@+                   ",
"                  X@@@@@@@@@@@@@@@@@@@@@@@@@@X                  ",
"                 X@@@@@@@@@@@@@@@@@@@@@@@@@@@@X                 ",
"                 XXXXXXXXXXXXXXXXXXXXXXXXXXXXXX                 ",
"                 X@@@@@@@@@@@@@@@@@@@@@@@@@@@@X                 ",
"                  +@@@@@@@@@@@@@@@@@@@@@@@@@@X                  ",
"                   O@@@@@@@@@@@@@@@@@@@@@@@@X                   ",
"                    X@@@@@@@@@@@@@@@@@@@@@@o                    ",
"                    X@@@@@@@@@@@@@@@@@@@@@@o                    ",
"                     X@@@@@@@@@@@@@@@@@@@@o                     ",
"                      X@@@@@@@@@@@@@@@@@@o                      ",
"                      o@@@@@@@@@@@@@@@@@@o                      ",
"                       X@@@@@@@@@@@@@@@@X                       ",
"                        O@@@@@@@@@@@@@@X                        ",
"                        O@@@@@@@@@@@@@@X                        ",
"                         O@@@@@@@@@@@@X                         ",
"                          X@@@@@@@@@@X                          ",
"                          X@@@@@@@@@X                           ",
"                           O@@@@@@@@X                           ",
"                            +@@@@@@X                            ",
"                             O@@@@X                             ",
"                             O@@@@X                             ",
"                              o@@X                              ",
"                               XX                               ",
"                                                                ",
"                                                                ",
"                                                                ",
"                                                                ",
"                                                                ",
"                                                                ",
"                                                                ",
"                                                                ",
"                                                                ",
"                                                                ",
"                                                                ",
"                                                                ",
"                                                                ",
"                                                                ",
"                                                                ",
"                                                                ",
"                                                                ",
"                                                                "
};
