/* XPM */
static char *_b4823df5a66486ba17a64e259b45164e41nfH72mP6pLa7u[] = {
/* columns rows colors chars-per-pixel */
"64 64 6 1 ",
"  c None",
". c black",
"X c #CB0A0A",
"o c #1D27C8",
"O c #CBADAD",
"+ c #8084CF",
/* pixels */
"                                                                ",
"                            .......                             ",
"                         ...OOOOOOO...                          ",
"                        ..OOOOOOOOOOO..                         ",
"                       .OOOOOOOOOOOOOOO.                        ",
"                      .OOOOOOOOOOOOOOOOO.                       ",
"                     .OOOOOOOOOOOOOOOOOO..                      ",
"                     .OOOOOOOOOOOOOOOOOOO.                      ",
"                    .OOOOO..OOOOOOO..OOOOO.                     ",
"                    .OOOOO+.OOOOOOO+.OOOOO.                     ",
"                    .OOOOOOOOOOOOOOOOOOOOO.                     ",
"                    .OOOOOOOOOO.OOOOOOOOOO.                     ",
"                    .OOOOOOOOO...OOOOOOOOO.                     ",
"                     .OOOOOOOOOOOOOOOOOOO.                      ",
"                     .OOOO..OOOOOO..OOOO..                      ",
"                      .OOOO.OOOOO..OOOOO.                       ",
"                       .OOO.......OOOO..                        ",
"                        ..OOOOOOOOOOO..                         ",
"                         ...OOOOOOO...                          ",
"                            .......                             ",
"                            .XXXX.                              ",
"          ...................XXXX.....................          ",
"         .XXXXXXXXXXXXXXXXXXXXXXXXXXXXXXXXXXXXXXXXXXXX.         ",
"        .XXXXXXXXXXXXXXXXXXXXXXXXXXXXXXXXXXXXXXXXXXXXXX.        ",
"       .XXXXXXXXXXXXXXXXXXXXXXXXXXXXXXXXXXXXXXXXXXXXXXXX.       ",
"       .XXXXXXXXXXXXXXXXXXXXXXXXXXXXXXXXXXXXXXXXXXXXXXXX.       ",
"       .XXXXXXXXXXXXXXXXXXX...XXXX.........XXXXXXXXXXXXX.       ",
"       .XXXXXXXXXXXXXXXXXX....XXXX...XXX...XXXXXXXXXXXXX.       ",
"       .XXXXXXXXXXXXXXXXXX...XXXXX..XXXX...XXXXXXXXXXXXX.       ",
"       .XXXXXXXXXXXXXXXXX....XXXXX.XXXXX...XXXXXXXXXXXXX.       ",
"       .XXXXX......XXXXXX...XXXXXXXXXX....XXX......XXXXX.       ",
"       .XXXXX.    .XXXXX...XXXXXXXXXX...XXXXX.    .XXXXX.       ",
"       .XXXXX.    .XXXX.........XXXX...XXXXXX.    .XXXXX.       ",
"       .XXXXX.    .XXX..........XX....XXXXXXX.    .XXXXX.       ",
"       .XXXXX.    .XXX..........X...XXXXX.XXX.    .XXXXX.       ",
"       .XXXXX.    .XXXXXXXXXX...X...XXXX..XXX.    .XXXXX.       ",
"       .XXXXX.    .XXXXXXXXXX...X...XXX...XXX.    .XXXXX.       ",
"       .XXXXX.    .XXXXXXXXXX...X.........XXX.    .XXXXX.       ",
"       .XXXXX.    .XXXXXXXXXX...XXXXXXXXXXXXX.    .XXXXX.       ",
"       .XXXXX.    .XXXXXXXXXX...XXXXXXXXXXXXX.    .XXXXX.       ",
"       .XXXXX.    .XXXXXXXXXX...XXXXXXXXXXXXX.    .XXXXX.       ",
"       .XXXXX.    .XXXXXXXXXX...XXXXXXXXXXXXX.    .XXXXX.       ",
"       .XXXXX.    .XXXXXXXXXXXXXXXXXXXXXXXXXX.    .XXXXX.       ",
"       .XXXXX.    .XXXXXXXXXXXXXXXXXXXXXXXXXX.    .XXXXX.       ",
"       .XXXXX.    .XXXXXXXXXXXXXXXXXXXXXXXXXX.    .XXXXX.       ",
"       .XXXXX.    .XXXXXXXXXXXXXXXXXXXXXXXXXX.    .XXXXX.       ",
"       .......    ............................    .......       ",
"                    .oooooooooooooooooooooo.                    ",
"                    .oooooooooooooooooooooo.                    ",
"                    .oooooooooooooooooooooo.                    ",
"                    .oo..................oo.                    ",
"                    .oo.                .oo.                    ",
"                    .oo.                .oo.                    ",
"                    .oo.                .oo.                    ",
"                    .oo.                .oo.                    ",
"                    .oo.                .oo.                    ",
"                   .....                .....                   ",
"                   .....                .....                   ",
"                   .....                .....                   ",
"                ........                ........                ",
"                ........                ........                ",
"                ........                ........                ",
"                ........                ........                ",
"                ........                ........                "
};
