/* XPM */
static char *a2299315785e4befef42208163c4f1905VXNTkUQgcDqsELC[] = {
/* columns rows colors chars-per-pixel */
"64 64 5 1 ",
"  c None",
". c black",
"X c #CB0A0A",
"o c #1D27C8",
"O c #CBADAD",
/* pixels */
"                                                                ",
"                            .......                             ",
"                         ...OOOOOOO...                          ",
"                        ..OOOOOOOOOOO..                         ",
"                       .OOOOOOOOOOOOOOO.                        ",
"                      .OOOOOOOOOOOOOOOOO.                       ",
"                     .OOOOOOOOOOOOOOOOOO..                      ",
"                     .OOOOOOOOOOOOOOOOOOO.                      ",
"                    .OOOOOOOOOOOOOOOOOOOOO.                     ",
"                    .OOOOOOOOOOOOOOOOOOOOO.                     ",
"                    .OOOOOOOOOOOOOOOOOOOOO.                     ",
"                    .OOOOOOOOOOOOOOOOOOOOO.                     ",
"                    .OOOOOOOOOOOOOOOOOOOOO.                     ",
"                     .OOOOOOOOOOOOOOOOOOO.                      ",
"                     .OOOOOOOOOOOOOOOOOO..                      ",
"                      .OOOOOOOOOOOOOOOOO.                       ",
"                       .OOOOOOOOOOOOOO..                        ",
"                        ..OOOOOOOOOOO..                         ",
"                         ...OOOOOOO...                          ",
"                            .......                             ",
"                            .XXXX.                              ",
"          ...................XXXX.....................          ",
"         .XXXXXXXXXXXXXXXXXXXXXXXXXXXXXXXXXXXXXXXXXXXX.         ",
"        .XXXXXXXXXXXXXXXXXXXXXXXXXXXXXXXXXXXXXXXXXXXXXX.        ",
"       .XXXXXXXXXXXXXXXXXXXXXXXXXXXXXXXXXXXXXXXXXXXXXXXX.       ",
"       .XXXXXXXXXXXXXXXXXXXXXXXXXXXXXXXXXXXXXXXXXXXXXXXX.       ",
"       .XXXXXXXXXXXXXXXXXXXXXXXXXXXXXXXXXXXXXXXXXXXXXXXX.       ",
"       .XXXXXXXXXXXXXXXXXXXXXXXXXXXXXXXXXXXXXXXXXXXXXXXX.       ",
"       .XXXXXXXXXXXXXXXXXXXXXXXXXXXXXXXXXXXXXXXXXXXXXXXX.       ",
"       .XXXXXXXXXXXXXXXXXXXXXXXXXXXXXXXXXXXXXXXXXXXXXXXX.       ",
"       .XXXXX......XXXXXXXXXXXXXXXXXXXXXXXXXX......XXXXX.       ",
"       .XXXXX.    .XXXXXXXXXXXXXXXXXXXXXXXXXX.    .XXXXX.       ",
"       .XXXXX.    .XXXXXXXXXXXXXXXXXXXXXXXXXX.    .XXXXX.       ",
"       .XXXXX.    .XXXXXXXXXXXXXXXXXXXXXXXXXX.    .XXXXX.       ",
"       .XXXXX.    .XXXXXXXXXXXXXXXXXXXXXXXXXX.    .XXXXX.       ",
"       .XXXXX.    .XXXXXXXXXXXXXXXXXXXXXXXXXX.    .XXXXX.       ",
"       .XXXXX.    .XXXXXXXXXXXXXXXXXXXXXXXXXX.    .XXXXX.       ",
"       .XXXXX.    .XXXXXXXXXXXXXXXXXXXXXXXXXX.    .XXXXX.       ",
"       .XXXXX.    .XXXXXXXXXXXXXXXXXXXXXXXXXX.    .XXXXX.       ",
"       .XXXXX.    .XXXXXXXXXXXXXXXXXXXXXXXXXX.    .XXXXX.       ",
"       .XXXXX.    .XXXXXXXXXXXXXXXXXXXXXXXXXX.    .XXXXX.       ",
"       .XXXXX.    .XXXXXXXXXXXXXXXXXXXXXXXXXX.    .XXXXX.       ",
"       .XXXXX.    .XXXXXXXXXXXXXXXXXXXXXXXXXX.    .XXXXX.       ",
"       .XXXXX.    .XXXXXXXXXXXXXXXXXXXXXXXXXX.    .XXXXX.       ",
"       .XXXXX.    .XXXXXXXXXXXXXXXXXXXXXXXXXX.    .XXXXX.       ",
"       .XXXXX.    .XXXXXXXXXXXXXXXXXXXXXXXXXX.    .XXXXX.       ",
"       .......    ............................    .......       ",
"                    .oooooooooooooooooooooo.                    ",
"                    .oooooooooooooooooooooo.                    ",
"                    .oooooooooooooooooooooo.                    ",
"                    .oo..................oo.                    ",
"                    .oo.                .oo.                    ",
"                    .oo.                .oo.                    ",
"                    .oo.                .oo.                    ",
"                    .oo.                .oo.                    ",
"                    .oo.                .oo.                    ",
"                   .....                .....                   ",
"                   .....                .....                   ",
"                   .....                .....                   ",
"                ........                ........                ",
"                ........                ........                ",
"                ........                ........                ",
"                ........                ........                ",
"                ........                ........                "
};
