/* XPM */
static char *_6753c81c35749edfb7c5408c21228f0JspDMQeKdM1zG2MW[] = {
/* columns rows colors chars-per-pixel */
"64 64 6 1 ",
"  c None",
". c black",
"X c #CB0A0A",
"o c #1D27C8",
"O c #CBADAD",
"+ c #8084CF",
/* pixels */
"                                                                ",
"                             ......                             ",
"                           ...OOOOO..                           ",
"                          ..OOOOOOOO..                          ",
"                         ..OOOOOOOOOO..                         ",
"                        ..OOOOOOOOOOOO..                        ",
"                        .OOOOOOOOOOOOOO.                        ",
"                       ..O..OOOOOO.OOOO..                       ",
"                       .OO.+.OOOO.O.OOOO.                       ",
"                       .OO..OOOOOOO.OOOO.                       ",
"                       .OOOOOOOOOOO.OOOO.                       ",
"                       .OOOOOOOOOO.OOOOO.                       ",
"                       ..OOOOOOOOOOOOOO..                       ",
"                        .OOOOOOOOOOOOOO.                        ",
"                        ..OOOOOOOOOOOO..                        ",
"                         ..OOOOOOOOOO..                         ",
"                          ..OOOOOOOO..                          ",
"                           ...OOOO...                           ",
"                             ......                             ",
"                              .XX.                              ",
"                              .XX.                              ",
"                        ................                        ",
"                        .XXX.XXXXXX.XXX.                        ",
"                        .XXX.XXXXXX.XXX.                        ",
"                        .XXX.XXXXXX.XXX.                        ",
"                        .XXX.XXXXXX.XXX.                        ",
"                        .XXX.XXXXXX.XXX.                        ",
"                        .XXX.XXXXXX.XXX.                        ",
"                        .XXX.XXXXXX.XXX.                        ",
"                        .XXX.XXXXXX.XXX.                        ",
"                        .XXX.XXXXXX.XXX.                        ",
"                        .XXX.XXXXXX.XXX.                        ",
"                        .XXX.XXXXXX.XXX.                        ",
"                        .XXX.XXXXXX.XXX.                        ",
"                        .XXX.XXXXXX.XXX.                        ",
"                        .XXX.XXXXXX.XXX.                        ",
"                        .XXX.XXXXXX.XXX.                        ",
"                        .XXX.XXXXXX.XXX.                        ",
"                        .XXX.XXXXXX.XXX.                        ",
"                        .XXX.XXXXXX.XXX.                        ",
"                        .XXX.XXXXXX.XXX.                        ",
"                        .XXX.XXXXXX.XXX.                        ",
"                        .XXX.XXXXXX.XXX.                        ",
"                        .XXX........XXX.                        ",
"                        .XXXXXXXXXXXXXX.                        ",
"                        .XXXXXXXXXXXXXX.                        ",
"                        ................                        ",
"                            .oooooo.                            ",
"                            .oooooo.                            ",
"                            .oooooo.                            ",
"                            .oooooo.                            ",
"                            .oooooo.                            ",
"                            .oooooo.                            ",
"                            .oooooo.                            ",
"                            .oooooo.                            ",
"                            .oooooo.                            ",
"                            .oooooo.                            ",
"                            .oooooo.                            ",
"                            .oooooo.                            ",
"                            .oooooo.                            ",
"                            ........                            ",
"                            ........                            ",
"                            ........                            ",
"                            ........                            "
};
