/* XPM */
static char *b9177c1059a94658f386ce3f92b198c7UhoFMbJ8Zx4z7PMq[] = {
/* columns rows colors chars-per-pixel */
"64 64 2 1 ",
"  c #683007",
". c #A6602E",
/* pixels */
"                                                                ",
" ............... ............... ............... ...............",
" ............... ............... ............... ...............",
" ............... ............... ............... ...............",
" ............... ............... ............... ...............",
" ............... ............... ............... ...............",
" ............... ............... ............... ...............",
" ............... ............... ............... ...............",
"                                                                ",
"........ .............. ................ ............... .......",
"........ .............. ................ ............... .......",
"........ .............. ................ ............... .......",
"........ .............. ................ ............... .......",
"........ .............. ................ ............... .......",
"........ .............. ................ ............... .......",
"........ .............. ................ ............... .......",
"                                                                ",
" ............... ............... ............... ...............",
" ............... ............... ............... ...............",
" ............... ............... ............... ...............",
" ............... ............... ............... ...............",
" ............... ............... ............... ...............",
" ............... ............... ............... ...............",
" ............... ............... ............... ...............",
"                                                                ",
"........ .............. ................ ............... .......",
"........ .............. ................ ............... .......",
"........ .............. ................ ............... .......",
"........ .............. ................ ............... .......",
"........ .............. ................ ............... .......",
"........ .............. ................ ............... .......",
"........ .............. ................ ............... .......",
"                                                                ",
" ............... ............... ............... ...............",
" ............... ............... ............... ...............",
" ............... ............... ............... ...............",
" ............... ............... ............... ...............",
" ............... ............... ............... ...............",
" ............... ............... ............... ...............",
" ............... ............... ............... ...............",
"                                                                ",
"........ .............. ................ .............. ........",
"........ .............. ................ .............. ........",
"........ .............. ................ .............. ........",
"........ .............. ................ .............. ........",
"........ .............. ................ .............. ........",
"........ .............. ................ .............. ........",
"........ .............. ................ .............. ........",
"                                                                ",
" ............... ............... ............... ...............",
" ............... ............... ............... ...............",
" ............... ............... ............... ...............",
" ............... ............... ............... ...............",
" ............... ............... ............... ...............",
" ............... ............... ............... ...............",
" ............... ............... ............... ...............",
"                                                                ",
"........ .............. ................ ............... .......",
"........ .............. ................ ............... .......",
"........ .............. ................ ............... .......",
"........ .............. ................ ............... .......",
"........ .............. ................ ............... .......",
"........ .............. ................ ............... .......",
"........ .............. ................ ............... ......."
};
